<svg xmlns="http://www.w3.org/2000/svg" viewBox="0 0 24 24" width="32" height="32">
  <rect width="24" height="24" fill="white" rx="12" ry="12"/>
  <path d="M6,22A3,3 0 0,1 3,19C3,18.4 3.18,17.84 3.5,17.37L9,7.81V6A1,1 0 0,1 8,5V4A2,2 0 0,1 10,2H14A2,2 0 0,1 16,4V5A1,1 0 0,1 15,6V7.81L20.5,17.37C20.82,17.84 21,18.4 21,19A3,3 0 0,1 18,22H6M5,19A1,1 0 0,0 6,20H18A1,1 0 0,0 19,19C19,18.79 18.93,18.59 18.82,18.43L13,8.35V4H11V8.35L5.18,18.43C5.07,18.59 5,18.79 5,19M13,16H11V14H13V16M13,13H11V11H13V13Z" fill="#4285F4"/>
</svg> 